<svg id="visual" viewBox="0 0 1920 1080" width="1920" height="1080" xmlns="http://www.w3.org/2000/svg" xmlns:xlink="http://www.w3.org/1999/xlink" version="1.1"><path d="M0 662L22.8 692.8C45.7 723.7 91.3 785.3 137 810.3C182.7 835.3 228.3 823.7 274 805.8C319.7 788 365.3 764 411.2 741.5C457 719 503 698 548.8 695.3C594.7 692.7 640.3 708.3 686 731.7C731.7 755 777.3 786 823 803.5C868.7 821 914.3 825 960 802.3C1005.7 779.7 1051.3 730.3 1097 708.2C1142.7 686 1188.3 691 1234 691.2C1279.7 691.3 1325.3 686.7 1371.2 685C1417 683.3 1463 684.7 1508.8 696.7C1554.7 708.7 1600.3 731.3 1646 749.3C1691.7 767.3 1737.3 780.7 1783 785.3C1828.7 790 1874.3 786 1897.2 784L1920 782L1920 1081L1897.2 1081C1874.3 1081 1828.7 1081 1783 1081C1737.3 1081 1691.7 1081 1646 1081C1600.3 1081 1554.7 1081 1508.8 1081C1463 1081 1417 1081 1371.2 1081C1325.3 1081 1279.7 1081 1234 1081C1188.3 1081 1142.7 1081 1097 1081C1051.3 1081 1005.7 1081 960 1081C914.3 1081 868.7 1081 823 1081C777.3 1081 731.7 1081 686 1081C640.3 1081 594.7 1081 548.8 1081C503 1081 457 1081 411.2 1081C365.3 1081 319.7 1081 274 1081C228.3 1081 182.7 1081 137 1081C91.3 1081 45.7 1081 22.8 1081L0 1081Z" fill="#006df8" stroke-linecap="round" stroke-linejoin="miter"></path></svg>